/* XPM */
static char * c_exit_xpm[] = {
"64 64 190 2",
"  	c #CAC29B",
". 	c #CBC39C",
"+ 	c #CDC8A0",
"@ 	c #D3CEA4",
"# 	c #D6D1A7",
"$ 	c #D6D3A8",
"% 	c #D5D2A7",
"& 	c #D7D2A8",
"* 	c #DAD2AB",
"= 	c #D2CDA3",
"- 	c #CEC79D",
"; 	c #C9C19A",
"> 	c #C6BE97",
", 	c #BBB291",
"' 	c #B3AA89",
") 	c #B5AD89",
"! 	c #BDB590",
"~ 	c #C3BB94",
"{ 	c #CDC69C",
"] 	c #C8C197",
"^ 	c #CEC69F",
"/ 	c #D6CFA5",
"( 	c #B7AF8B",
"_ 	c #BBB38E",
": 	c #C5BD98",
"< 	c #CCC49D",
"[ 	c #CBC49A",
"} 	c #CDC59E",
"| 	c #CFCAA0",
"1 	c #D8D3A9",
"2 	c #D4CFA5",
"3 	c #D5CDA6",
"4 	c #D6CEA7",
"5 	c #D2CBA1",
"6 	c #C8C099",
"7 	c #C0B894",
"8 	c #BBB38F",
"9 	c #BCB490",
"0 	c #BFB792",
"a 	c #BFB790",
"b 	c #C4BC95",
"c 	c #CAC399",
"d 	c #D3CCA2",
"e 	c #D5D0A6",
"f 	c #BEB692",
"g 	c #BCB48F",
"h 	c #C0B893",
"i 	c #CBC69E",
"j 	c #CFC7A0",
"k 	c #D1C9A2",
"l 	c #C7BF9A",
"m 	c #C3BB96",
"n 	c #BEB68F",
"o 	c #C6BE99",
"p 	c #C4BC97",
"q 	c #CAC29D",
"r 	c #D0CBA1",
"s 	c #CAC59B",
"t 	c #D1CAA0",
"u 	c #C1B994",
"v 	c #BEB691",
"w 	c #C5BD99",
"x 	c #CBC39E",
"y 	c #CFCAA2",
"z 	c #CBC69C",
"A 	c #D2CAA3",
"B 	c #C2BA95",
"C 	c #BFB793",
"D 	c #BDB591",
"E 	c #C9C19C",
"F 	c #D4D0A3",
"G 	c #B9B18C",
"H 	c #C4BF99",
"I 	c #C8C39D",
"J 	c #CFC89C",
"K 	c #B4AC88",
"L 	c #D4CCA5",
"M 	c #D4D1A4",
"N 	c #D6D3A6",
"O 	c #D4CDA3",
"P 	c #CCC59B",
"Q 	c #C5BD96",
"R 	c #C2BD97",
"S 	c #C6C19B",
"T 	c #B4AC87",
"U 	c #C8C09B",
"V 	c #D1CCA2",
"W 	c #D8D0A9",
"X 	c #D5D2A5",
"Y 	c #D8D4A7",
"Z 	c #D9D2A8",
"` 	c #D7D0A6",
" .	c #BDB58E",
"..	c #C5C09A",
"+.	c #C7C29C",
"@.	c #D8D1A7",
"#.	c #D0C8A1",
"$.	c #D7D2AA",
"%.	c #CCC79D",
"&.	c #C2BA93",
"*.	c #BEB594",
"=.	c #C9C298",
"-.	c #C7BF98",
";.	c #B9B18D",
">.	c #D5D0A8",
",.	c #C7C298",
"'.	c #D3CBA4",
").	c #D0CBA3",
"!.	c #837070",
"~.	c #997F7B",
"{.	c #C9C49C",
"].	c #A69183",
"^.	c #C8C39B",
"/.	c #CEC99F",
"(.	c #B7B28C",
"_.	c #B8B38D",
":.	c #C3BE98",
"<.	c #C9C39F",
"[.	c #CFC89E",
"}.	c #D5CEA4",
"|.	c #DAD3A9",
"1.	c #B69C8D",
"2.	c #C4BF97",
"3.	c #BDB892",
"4.	c #BCB791",
"5.	c #C1BC96",
"6.	c #C6C199",
"7.	c #CCC79F",
"8.	c #C7C29A",
"9.	c #B9B48E",
"0.	c #CDC89E",
"a.	c #C2BD95",
"b.	c #DAD6A9",
"c.	c #C1B992",
"d.	c #BBB38C",
"e.	c #C9C49E",
"f.	c #CCC39A",
"g.	c #D7D3A6",
"h.	c #C0B891",
"i.	c #C9C099",
"j.	c #CBC29B",
"k.	c #D6D2A5",
"l.	c #BCB48D",
"m.	c #BAB28D",
"n.	c #473933",
"o.	c #404040",
"p.	c #221A1D",
"q.	c #D9D4AA",
"r.	c #C5C096",
"s.	c #E9F2F9",
"t.	c #6B5437",
"u.	c #C9C097",
"v.	c #C6C197",
"w.	c #BEB993",
"x.	c #886945",
"y.	c #BAB58F",
"z.	c #BBB690",
"A.	c #4E4E4E",
"B.	c #C0BB95",
"C.	c #C5C098",
"D.	c #B7B38E",
"E.	c #BBB792",
"F.	c #D7D4A9",
"G.	c #D7CFA8",
"H.	c #591504",
"I.	c #BAB691",
"J.	c #CCC39C",
"K.	c #423131",
"L.	c #73280A",
"M.	c #BCB692",
"N.	c #CDC49D",
"O.	c #9A421A",
"P.	c #CBC299",
"Q.	c #D0C79E",
"R.	c #B3AE88",
"S.	c #D6CFA3",
"T.	c #D2CB9F",
"U.	c #D9D2A6",
"V.	c #D4CDA1",
"W.	c #BAB28E",
"X.	c #6C5757",
"Y.	c #BFBA94",
"Z.	c #BAB28B",
"`.	c #D0C99F",
" +	c #CCC49F",
".+	c #C3BE96",
"++	c #BAB490",
"@+	c #B3AD89",
"#+	c #B4AE8A",
"$+	c #B9B391",
"    . + @ # $ % & & # & & * * * & = -   . . ; > , ' ) ! ~   { ] ; . . ^ / & # & & & # & & * * * & = -   . . ; > , ( ) _ : < [ ] ",
"  ;   } | @ % $ & 1 & # 2 3 4 4 # 2 5 } . . ; 6 7 8 9 0 a b c [ ; .   < d 2 e 1 & 1 & # 2 3 4 4 # 2 5 } . . ; 6 f 9 _ g h >   . ",
"    ;   i | @ # & 1 1 2 | ^ j k e # 2 5 } .   ; l : : m ! n > < ; . ;   j 5 @ 1 & 1 1 2 | ^ j k e # 2 5 } .   ; o o p h ! 0 : q ",
"      ;   i r 2 # 1 & = s 6 ; < e & & 2 t ^ . ;       > 0 ! u o ; .   ; < ^ t / # 1 & = s 6 ; < e & & 2 t ^ . ; c .   > h v u w ",
"q x .   ;   ^ y e & 1 @ z 6 ; < 2 # 1 # 2 5 ^   [ [   ; o u ! v l q   ; . . } A e & 1 @ z 6 ; < 2 # 1 # 2 5 ^   c c c ; o B C D ",
"E q x . ; ; < ^ 2 & 1 e | ^ ^ k F # 1 & # 2 5 - - { c   . : g G H I q   .   . ^ 2 & 1 e | ^ ^ k F # 1 & # 2 5 - J { [   ; p 8 K ",
"l E q q ; ; . } @ e & & 2 L L 4 M N 1 & & # e = O 5 P   < Q g _ R S I q .     } @ e & & 2 L L 4 M N 1 & & # e = / 5 - . ; p _ T ",
"l U E E ; ; . } V @ # & & W W W X N Y & # & 1 1 Z ` j     b  .n R ..+.E . . . } V @ # & & W W W X N Y & # & 1 1 @.d - . ; > h g ",
", 7 o   c c   . } #.4 $.$.2 | %.e e & & 1 & & # & = z ; ;   > &.*.D m   [ c . . } #.4 $.$.2 | %.e e & & 1 & & # # V z   ; 6 > Q ",
") 9 :   c c   < . j 4 $.$.2 V | e 2 @ @ @ 2 # & 1 e r ^ < . ; Q 8 9 p < [ =.  . . j 4 $.$.2 V | e 2 @ @ @ 2 # & & e r ^ <   ; ; ",
"K _ m ;       .   ^ 3 $.$.# 2 @ # @ | %.%.| 2 & & # 2 k } . ; -.;._ p . . ;       ^ 3 $.$.# 2 @ # @ | %.%.| 2 & & # 2 A }       ",
"g v B > ; .       } A >.$.1 & & & = z ,.,.%.@ 1 # 1 # '.}   ; 6 v g u -.;   . ;   } A >.$.1 & & & = z ,.,.%.@ 1 # & & L ^ ; ;   ",
"o B 0 u >     ;   . ^ ).>.1 1 & & = z ,.,.%.@ !.!.!.1 3 j <   ; o 0 ! u Q   !.!.!.. ^ ).>.1 1 & & = z ,.,.%.@ 1 & 1 & 3 j .     ",
"  Q 0 v u o ;         i ).2 # & 1 2 | %.%.!.!.!.~.!.!.'.!.!.!.!.!.!.!.!.h !.!.~.!.!.!.i ).2 # & 1 2 | %.%.| 2 1 & # 2 '.#.} . ; ",
"  ; : h v h > .       {.i | 2 & & # 2 = = !.].].].~.!.!.!.~.].].].].~.!.!.!.~.].].].!.{.i | 2 & & # 2 = = 2 # & # @ | k A k }   ",
"c < x p g _ ~ <   . < ^.^.%.@ 1 & & & & !.!.].].].].].].].].].].].].].].].].].].].].!.!.^.%.@ 1 & & & & & & & & 1 @ /.k 3 4 A < ",
"=.6   b (._.:.<.        [ [.}.|.& & & & !.].].1.1.].].].].].].1.1.].].].].].].1.1.].].!.[ [.}.|.& & & & & & & & 1 # e e # # 2 = ",
"[.} . 2.3.4.5.:.;       c { 5 / # & 1 1 !.].].1.1.1.].].].].].1.1.].].].].].1.1.1.].].!.c { 5 / # & 1 1 & # & & & # e # & 1 1 & ",
"}.d } 6.H 5.4.4.6       ; [ - t 2 e & 1 !.].].1.1.1.1.].].].1.1.1.1.].].].1.1.1.1.].].!.; [ - t 2 e & 1 & & & & & & & & & 1 1 1 ",
"@.2 7.8.^.R 9.(.6 ;   .     [ { r V = !.~.].].1.1.1.1.1.].].1.1.1.1.].].1.1.1.1.1.].].~.!.  [ { r V = 2 & 1 & # @ e & & & # # & ",
"# e 0.8.^.a.9.G o U   .         %.z !.~.].].1.1.1.1.1.].].].].].].].].].].1.1.1.1.1.].].~.!.    %.z %.| 2 & # 2 %.| 2 # & & 1 1 ",
"# 2 | z {.Q 0 ! m : U   .       .   !.~.~.].1.1.1.1.1.].].].].].].].].].].1.1.1.1.1.].~.~.!.    .     } A 3 L A 0.r 2 & 1 & & & ",
"1 e 2 V 7.  > B 0 u : U           ; !.!.~.].1.1.1.].].].~.~.~.~.~.~.~.~.].].].1.1.1.].~.!.!.      ; ;   } ^ j ^ = @ e & & & # e ",
"b.# & # k ^ . : g 0 m l ;           !.~.].].1.1.1.].].].~.!.!.!.!.!.!.~.].].].1.1.1.].].~.!.            ; ; . < @ @ 2 e & & & & ",
"1 & & & @.'.} ; ; c.d.n : I e.I f.f.!.~.].].].].].].].~.!.!.!.!.!.!.!.!.~.].].].].].].].~.!.e.I f.f.f.; 6   x I } } ^ 5 / Y Y g.",
"& # e 2 2 '.#.}   b h.h.u 5.:...i.!.~.].].].].].].].~.!.!.!.!.!.!.!.!.!.!.~.].].].].].].].~.!...i.j..     . . . .   . { 5 @ k.g.",
"& 2 r 0.0.t '.'.}   > c.l.m.9.4.!.!.~.].1.1.n.n.n.~.!.!.o.p.p.p.p.p.p.o.!.!.~.n.n.n.1.1.].~.!.!.-.;   . . .   6       . - 5 2 g.",
"q.@ z r.r.z = Z k j . Q a d._ !.~.~.~.1.1.n.s.s.t.n.!.o.p.p.p.p.p.p.p.p.o.!.n.t.s.s.n.1.1.~.~.~.!.R R -.; . j.u.. .     [ - 5 }.",
"|.@ z v.r.z @ 1 }.5 } ; -.> b !.~.~.1.1.1.n.s.s.t.t.n.p.p.p.p.p.p.p.p.p.p.n.t.t.s.s.n.1.1.1.~.~.!.9.9.w.>   . j.;       ;   { [.",
"L '.t 0.0.| @ # & 2 t } < . 6 !.~.].].1.1.n.x.x.t.t.t.n.n.p.p.p.p.p.p.n.n.t.t.t.x.x.n.1.1.].].~.!.y.9.z.u ~ Q > 8.^.. .       . ",
"} #.L 2 2 2 e # 1 & 2 t } < ; !.].].].].].A.n.x.x.t.t.t.t.n.p.p.p.p.n.t.t.t.t.x.x.A.A.].].].].].!.> p B.4.y.y.3.C.6.8.          ",
"; ^ L @.& # & & # 1 1 }.#.j j !.].].].].~.~.A.n.n.x.x.t.t.t.n.n.n.n.t.t.t.x.x.n.n.A.~.~.].].].].!.} < S 3.(.D.E.a.a.2.-.; ; ; ; ",
"  . } ).e 1 F.% 1 & # # # G.G.!.].].].].~.~.!.A.o.n.x.x.t.t.t.t.H.t.t.t.x.x.n.A.A.!.~.~.].].].].!.V { ; -.-.Q &.I.D.(.4.o J.J.i.",
"; ;   ^ r 2 % % & & & # 2 3 4 !.~.].].~.~.!.!.!.K.p.n.n.x.t.t.H.L.H.H.x.n.n.p.K.!.!.!.~.~.].].~.!.2 5 }   ; 6 -.M.z.y.v u > j.N.",
"      . 7.r 2 & # & & 2 | j #.!.~.].].~.~.~.].!.K.p.p.n.n.x.H.L.L.L.L.H.H.p.p.K.!.].~.~.~.].].~.!.& e 5 } . .   : o : u ! v Q . ",
". .       7.V e # 1 & = s 6 ; !.~.~.~.~.].].].!.K.p.n.L.L.n.H.O.O.L.L.L.L.H.p.K.!.].].].~.~.~.~.!.& & 2 t ^ <   j..   > h z.w.R ",
"E q   ; 6   ^ y e 1 1 @ s -.o.~.~.~.~.~.].].!.A.n.n.L.L.L.O.O.H.O.O.O.L.L.L.H.n.A.!.].].~.~.~.~.~.o.& # @ 5 } ; P.j.  ; > B.4.y.",
"E q x   ; ; < ^ 2 & 1 e r ^ o.~.~.~.~.].].].!.n.t.t.H.L.O.O.n.n.H.H.O.O.L.H.t.t.n.!.].].].~.~.~.~.o.& & # 2 t { Q.P c     :.y.R.",
"U q x x     < } @ e 1 & e 3 o.~.~.~.~.].].n.n.t.t.t.H.O.O.n.p.p.p.p.H.O.O.H.t.t.t.n.n.].].~.~.~.~.o.& & & & e = S.T.{ .   : g K ",
"o U E q ;   . < V @ # & # W o.~.~.~.].].n.t.t.t.t.t.x.n.n.p.p.p.p.p.p.H.H.x.t.t.t.t.t.n.].].~.~.~.o.g.# # 1 1 & U.V.[.[   o 7 W.",
", 7 o   c c   . } #.4 $.$.2 o.!.~.~.n.n.t.t.t.x.x.x.n.p.p.p.p.p.p.p.p.p.p.n.x.x.x.t.t.t.n.n.~.~.!.o.& & 1 & & # # V z   ; 6 > Q ",
") 9 :   c c   < . j 4 $.$.o.X.!.!.n.t.t.t.t.x.x.n.n.p.p.p.p.p.p.p.p.p.p.p.p.n.n.x.x.t.t.t.t.n.!.!.X.o.@ @ 2 # & & e r ^ <   ; ; ",
"K _ m ;       .   ^ 3 $.$.o.!.!.n.s.s.t.x.x.x.n.o.p.p.p.p.p.p.p.p.p.p.p.p.p.p.o.n.x.x.x.t.s.s.n.!.!.o.%.%.| 2 & & # 2 A }       ",
"g v B > ; .       } A >.$.o.X.!.n.s.s.x.x.n.n.o.o.o.o.o.o.o.o.o.o.o.o.o.o.o.o.o.o.n.n.x.x.s.s.n.!.X.o.,.,.%.@ 1 # & & L ^ ; ;   ",
"o B 0 u >     ;   . ^ ).>.o.X.X.n.x.x.x.n.o.o.o.o.o.o.o.o.o.o.o.o.o.o.o.o.o.o.o.o.o.o.n.x.x.x.n.X.X.o.,.,.%.@ 1 & 1 & 3 j .     ",
"  Q 0 v u o ;         i o.A.X.X.o.n.n.n.o.X.K.o.o.o.A.A.A.A.A.A.A.A.A.A.A.A.o.o.o.K.X.o.n.n.n.o.X.X.A.o.%.| 2 1 & # 2 '.#.} . ; ",
"  ; : h v h > .       {.o.A.A.X.!.o.o.o.A.A.o.A.A.A.A.A.A.A.A.A.A.A.A.A.A.A.A.A.A.o.A.A.o.o.o.!.X.A.A.o.= 2 # & # @ | k A k }   ",
"c < x p g _ ~ <   . < ^.o.A.A.A.X.X.A.A.A.A.o.A.A.A.A.X.X.X.X.X.X.X.X.X.X.A.A.A.A.o.A.A.A.A.X.X.A.A.A.o.& & & & 1 @ /.k 3 4 A < ",
"=.6   b (._.:.<.        o.A.A.A.A.A.A.A.A.A.o.X.X.X.X.X.X.X.X.X.X.X.X.X.X.X.X.X.X.o.A.A.A.A.A.A.A.A.A.o.& & & & 1 # e e # # 2 = ",
"[.} . 2.3.4.5.:.;       A.o.A.A.A.A.A.A.A.o.X.X.X.X.X.# & 1 & # 5 } . C.w.X.X.X.X.X.o.A.A.A.A.A.A.A.o.A.& # & & & # e # & 1 1 & ",
"}.d } 6.H 5.4.4.6       ; A.o.A.A.A.A.A.o.X.X.& 1 1 & & & & & & / d } 8...Y.z.3.6 X.X.o.A.A.A.A.A.o.A.1 & & & & & & & & & 1 1 1 ",
"@.2 7.8.^.R 9.(.6 ;   .     [ o.o.o.o.o.X.1 & # 2 e & & & # # # @.2 i 8.^.5._._.6 ;   X.o.o.o.o.o.V = 2 & 1 & # @ e & & & # # & ",
"# e 0.8.^.a.9.G o U   .         %.z %.| 2 & # 2 0.r 2 # & & 1 1 & 2 z 8.^.a.9.G o U   .         %.z %.| 2 & # 2 %.| 2 # & & 1 1 ",
"# 2 | z {.Q 0 ! m : U   .       .     } A 3 L A 0.r 2 & 1 & & & & 2 /.s {.> 0 g m : U   .       .     } A 3 L A 0.r 2 & 1 & & & ",
"1 e 2 V 7.  > B 0 u : U           ; ;   } ^ j ^ = 2 e & & & # # & e 2 V i ; > B 0 u : U           ; ;   } ^ j ^ = @ e & & & # e ",
"b.# & # k ^ . : g 0 m l ;               ; ; . < @ 2 2 e # & 1 1 Y # 1 # j < . o g 0 m l ;               ; ; . < @ @ 2 e & & & & ",
"& & 1 1 Z L } 6 ; h.Z. .o e.e.I   .   ;   . .   < < ^ y 2 & F.F.& 1 1 & @.3 ^ ; ; h.Z. .o e.e.I   .   ;   . .   } } ^ y 2 & $ % ",
"1 # 2 @ @ '.#.^ . Q h.h.B 5.R :.> ; .   ;   . . . . . ^ | @ % F.& # e @ = L k ^ . Q h.h.B 5.R :.> ; .   ;   . . . . . ^ r @ % % ",
"1 2 | %.%.`.'.L }   > c. .m.y.4.o E  +.   ; c [       . i | @ & & 2 | %.%.t '.L }   > c. .m.y.4.o E  +.   ; c [ ; ; ;   i | @ # ",
"1 = z v.v.z V @.#.^   b n d._ ! m p o -.6   c c   . .   . i r 2 # = %.v.v.%.= ` #.^   b n d._ ! m p o -.6   c c     ; ;   i r @ ",
"Z = z v.v.z = & / d ^ ; > b ~ c.! _ m.v Q ; .   q x . .   . ^ y ` = %.v.v.%.= # / d ^ ; > b ~ c.! _ m.v Q ; .   q q .     . } + ",
"3 '.t %.%.| 2 & # @ t } < . ; > w.y._.z.Y.R :.:.U q x .   ; . < L '.t %.%.| 2 & # @ t } < . ; > w.y._.z.Y.R :.:.E q x   ; ; ;   ",
"^ k L @ @ 2 # & # # @ t } .   ; C.2..+B.4.9.++M.l E q q   ;     ^ k L = @ e # & # # @ t } .   ; C.2..+B.4.9.++M.U U E q     ; ; ",
"; ^ 3 Z 1 & & # & q.1 O }     . ,.{.{.H y.@+#+$+U U E q     . . ; ^ 3 @.& 1 1 & & q.1 O }     . ,.{.{.H y.@+#+$+l U E q . . .   "};
