/* XPM */
static char * o_exit_xpm[] = {
"64 64 183 2",
"  	c #CAC29B",
". 	c #CBC39C",
"+ 	c #CDC8A0",
"@ 	c #D3CEA4",
"# 	c #D6D1A7",
"$ 	c #D6D3A8",
"% 	c #D5D2A7",
"& 	c #D7D2A8",
"* 	c #DAD2AB",
"= 	c #D2CDA3",
"- 	c #CEC79D",
"; 	c #C9C19A",
"> 	c #C6BE97",
", 	c #BBB291",
"' 	c #B3AA89",
") 	c #B5AD89",
"! 	c #BDB590",
"~ 	c #C3BB94",
"{ 	c #CDC69C",
"] 	c #C8C197",
"^ 	c #CEC69F",
"/ 	c #D6CFA5",
"( 	c #B7AF8B",
"_ 	c #BBB38E",
": 	c #C5BD98",
"< 	c #CCC49D",
"[ 	c #CBC49A",
"} 	c #CDC59E",
"| 	c #CFCAA0",
"1 	c #D8D3A9",
"2 	c #D4CFA5",
"3 	c #D5CDA6",
"4 	c #D6CEA7",
"5 	c #D2CBA1",
"6 	c #C8C099",
"7 	c #C0B894",
"8 	c #BBB38F",
"9 	c #BCB490",
"0 	c #BFB792",
"a 	c #BFB790",
"b 	c #C4BC95",
"c 	c #CAC399",
"d 	c #D3CCA2",
"e 	c #D5D0A6",
"f 	c #BEB692",
"g 	c #BCB48F",
"h 	c #C0B893",
"i 	c #CBC69E",
"j 	c #CFC7A0",
"k 	c #D1C9A2",
"l 	c #C7BF9A",
"m 	c #C3BB96",
"n 	c #BEB68F",
"o 	c #C6BE99",
"p 	c #C4BC97",
"q 	c #CAC29D",
"r 	c #D0CBA1",
"s 	c #CAC59B",
"t 	c #D1CAA0",
"u 	c #C1B994",
"v 	c #BEB691",
"w 	c #C5BD99",
"x 	c #CBC39E",
"y 	c #CFCAA2",
"z 	c #CBC69C",
"A 	c #D2CAA3",
"B 	c #C2BA95",
"C 	c #BFB793",
"D 	c #BDB591",
"E 	c #C9C19C",
"F 	c #D4D0A3",
"G 	c #B9B18C",
"H 	c #C4BF99",
"I 	c #C8C39D",
"J 	c #CFC89C",
"K 	c #B4AC88",
"L 	c #D4CCA5",
"M 	c #D4D1A4",
"N 	c #D6D3A6",
"O 	c #D4CDA3",
"P 	c #CCC59B",
"Q 	c #C5BD96",
"R 	c #C2BD97",
"S 	c #C6C19B",
"T 	c #B4AC87",
"U 	c #C8C09B",
"V 	c #D1CCA2",
"W 	c #D8D0A9",
"X 	c #D5D2A5",
"Y 	c #D8D4A7",
"Z 	c #D9D2A8",
"` 	c #D7D0A6",
" .	c #BDB58E",
"..	c #C5C09A",
"+.	c #C7C29C",
"@.	c #D8D1A7",
"#.	c #D0C8A1",
"$.	c #D7D2AA",
"%.	c #CCC79D",
"&.	c #C2BA93",
"*.	c #BEB594",
"=.	c #C9C298",
"-.	c #C7BF98",
";.	c #B9B18D",
">.	c #D5D0A8",
",.	c #C7C298",
"'.	c #D3CBA4",
").	c #D0CBA3",
"!.	c #837070",
"~.	c #D9D4AA",
"{.	c #997F7B",
"].	c #C9C49C",
"^.	c #A69183",
"/.	c #C8C39B",
"(.	c #CEC99F",
"_.	c #B7B28C",
":.	c #B8B38D",
"<.	c #C3BE98",
"[.	c #C9C39F",
"}.	c #CFC89E",
"|.	c #D5CEA4",
"1.	c #DAD3A9",
"2.	c #B69C8D",
"3.	c #C4BF97",
"4.	c #BDB892",
"5.	c #BCB791",
"6.	c #C1BC96",
"7.	c #C6C199",
"8.	c #CCC79F",
"9.	c #C7C29A",
"0.	c #B9B48E",
"a.	c #CDC89E",
"b.	c #C2BD95",
"c.	c #DAD6A9",
"d.	c #C1B992",
"e.	c #BBB38C",
"f.	c #C9C49E",
"g.	c #CCC39A",
"h.	c #D7D3A6",
"i.	c #C0B891",
"j.	c #C9C099",
"k.	c #CBC29B",
"l.	c #D6D2A5",
"m.	c #BCB48D",
"n.	c #BAB28D",
"o.	c #404040",
"p.	c #221A1D",
"q.	c #C5C096",
"r.	c #C9C097",
"s.	c #C6C197",
"t.	c #BAB58F",
"u.	c #BEB993",
"v.	c #BBB690",
"w.	c #C0BB95",
"x.	c #C5C098",
"y.	c #B7B38E",
"z.	c #BBB792",
"A.	c #D7D4A9",
"B.	c #D7CFA8",
"C.	c #BAB691",
"D.	c #CCC39C",
"E.	c #423131",
"F.	c #BCB692",
"G.	c #CDC49D",
"H.	c #4E4E4E",
"I.	c #CBC299",
"J.	c #D0C79E",
"K.	c #B3AE88",
"L.	c #D6CFA3",
"M.	c #D2CB9F",
"N.	c #D9D2A6",
"O.	c #D4CDA1",
"P.	c #BAB28E",
"Q.	c #6C5757",
"R.	c #BFBA94",
"S.	c #BAB28B",
"T.	c #D0C99F",
"U.	c #CCC49F",
"V.	c #C3BE96",
"W.	c #BAB490",
"X.	c #B3AD89",
"Y.	c #B4AE8A",
"Z.	c #B9B391",
"    . + @ # $ % & & # & & * * * & = -   . . ; > , ' ) ! ~   { ] ; . . ^ / & # & & & # & & * * * & = -   . . ; > , ( ) _ : < [ ] ",
"  ;   } | @ % $ & 1 & # 2 3 4 4 # 2 5 } . . ; 6 7 8 9 0 a b c [ ; .   < d 2 e 1 & 1 & # 2 3 4 4 # 2 5 } . . ; 6 f 9 _ g h >   . ",
"    ;   i | @ # & 1 1 2 | ^ j k e # 2 5 } .   ; l : : m ! n > < ; . ;   j 5 @ 1 & 1 1 2 | ^ j k e # 2 5 } .   ; o o p h ! 0 : q ",
"      ;   i r 2 # 1 & = s 6 ; < e & & 2 t ^ . ;       > 0 ! u o ; .   ; < ^ t / # 1 & = s 6 ; < e & & 2 t ^ . ; c .   > h v u w ",
"q x .   ;   ^ y e & 1 @ z 6 ; < 2 # 1 # 2 5 ^   [ [   ; o u ! v l q   ; . . } A e & 1 @ z 6 ; < 2 # 1 # 2 5 ^   c c c ; o B C D ",
"E q x . ; ; < ^ 2 & 1 e | ^ ^ k F # 1 & # 2 5 - - { c   . : g G H I q   .   . ^ 2 & 1 e | ^ ^ k F # 1 & # 2 5 - J { [   ; p 8 K ",
"l E q q ; ; . } @ e & & 2 L L 4 M N 1 & & # e = O 5 P   < Q g _ R S I q .     } @ e & & 2 L L 4 M N 1 & & # e = / 5 - . ; p _ T ",
"l U E E ; ; . } V @ # & & W W W X N Y & # & 1 1 Z ` j     b  .n R ..+.E . . . } V @ # & & W W W X N Y & # & 1 1 @.d - . ; > h g ",
", 7 o   c c   . } #.4 $.$.2 | %.e e & & 1 & & # & = z ; ;   > &.*.D m   [ c . . } #.4 $.$.2 | %.e e & & 1 & & # # V z   ; 6 > Q ",
") 9 :   c c   < . j 4 $.$.2 V | e 2 @ @ @ 2 # & 1 e r ^ < . ; Q 8 9 p < [ =.  . . j 4 $.$.2 V | e 2 @ @ @ 2 # & & e r ^ <   ; ; ",
"K _ m ;       .   ^ 3 $.$.# 2 @ # @ | %.%.| 2 & & # 2 k } . ; -.;._ p . . ;       ^ 3 $.$.# 2 @ # @ | %.%.| 2 & & # 2 A }       ",
"g v B > ; .       } A >.$.1 & & & = z ,.,.%.@ 1 # 1 # '.}   ; 6 v g u -.;   . ;   } A >.$.1 & & & = z ,.,.%.@ 1 # & & L ^ ; ;   ",
"o B 0 u >     ;   . ^ ).>.1 1 & & = z ,.,.%.!.!.!.~.1 3 j <   ; o 0 ! u Q !.!.!.  . ^ ).>.1 1 & & = z ,.,.%.@ 1 & 1 & 3 j .     ",
"  Q 0 v u o ;         i ).2 # & 1 2 | %.!.!.!.{.!.!.e !.!.!.!.!.!.!.!.v !.!.{.!.!.!.  i ).2 # & 1 2 | %.%.| 2 1 & # 2 '.#.} . ; ",
"  ; : h v h > .       ].i | 2 & & # 2 = !.^.^.^.{.!.!.!.{.^.^.^.^.{.!.!.!.{.^.^.^.!.  ].i | 2 & & # 2 = = 2 # & # @ | k A k }   ",
"c < x p g _ ~ <   . < /./.%.@ 1 & & & !.!.^.^.^.^.^.^.^.^.^.^.^.^.^.^.^.^.^.^.^.^.!.!././.%.@ 1 & & & & & & & & 1 @ (.k 3 4 A < ",
"=.6   b _.:.<.[.        [ }.|.1.& & & !.^.^.2.2.^.^.^.^.^.^.2.2.^.^.^.^.^.^.2.2.^.^.!.  [ }.|.1.& & & & & & & & 1 # e e # # 2 = ",
"}.} . 3.4.5.6.<.;       c { 5 / # & 1 !.^.^.2.2.2.^.^.^.^.^.2.2.^.^.^.^.^.2.2.2.^.^.!.  c { 5 / # & 1 1 & # & & & # e # & 1 1 & ",
"|.d } 7.H 6.5.5.6       ; [ - t 2 e & !.^.^.2.2.2.2.^.^.^.2.2.2.2.^.^.^.2.2.2.2.^.^.!.  ; [ - t 2 e & 1 & & & & & & & & & 1 1 1 ",
"@.2 8.9./.R 0._.6 ;   .     [ { r V !.{.^.^.2.2.2.2.2.^.^.2.2.2.2.^.^.2.2.2.2.2.^.^.{.!.    [ { r V = 2 & 1 & # @ e & & & # # & ",
"# e a.9./.b.0.G o U   .         %.!.{.^.^.2.2.2.2.2.^.^.^.^.^.^.^.^.^.^.2.2.2.2.2.^.^.{.!.      %.z %.| 2 & # 2 %.| 2 # & & 1 1 ",
"# 2 | z ].Q 0 ! m : U   .       . !.{.{.^.2.2.2.2.2.^.^.^.^.^.^.^.^.^.^.2.2.2.2.2.^.{.{.!.      .     } A 3 L A a.r 2 & 1 & & & ",
"1 e 2 V 8.  > B 0 u : U           !.!.{.^.2.2.2.^.^.^.{.{.{.{.{.{.{.{.^.^.^.2.2.2.^.{.!.!.        ; ;   } ^ j ^ = @ e & & & # e ",
"c.# & # k ^ . : g 0 m l ;         !.{.^.^.2.2.2.^.^.^.{.!.!.!.!.!.!.{.^.^.^.2.2.2.^.^.{.!.              ; ; . < @ @ 2 e & & & & ",
"1 & & & @.'.} ; ; d.e.n : I f.I g.!.{.^.^.^.^.^.^.^.{.!.!.!.!.!.!.!.!.{.^.^.^.^.^.^.^.{.!.I f.I g.g.g.; 6   x I } } ^ 5 / Y Y h.",
"& # e 2 2 '.#.}   b i.i.u 6.<...!.{.^.^.^.^.^.^.^.{.!.!.!.!.!.!.!.!.!.!.{.^.^.^.^.^.^.^.{.!.<...j.k..     . . . .   . { 5 @ l.h.",
"& 2 r a.a.t '.'.}   > d.m.n.0.!.!.{.^.2.2.^.^.^.{.!.!.o.p.p.p.p.p.p.o.!.!.{.^.^.^.2.2.^.{.!.!.5.-.;   . . .   6       . - 5 2 h.",
"~.@ z q.q.z = Z k j . Q a e.!.{.{.{.2.2.2.^.{.!.!.!.o.p.p.p.p.p.p.p.p.o.!.!.!.{.^.2.2.2.{.{.{.!.R R R -.; . k.r.. .     [ - 5 |.",
"1.@ z s.q.z @ 1 |.5 } ; -.> !.{.{.2.2.2.^.^.!.!.!.o.p.p.p.p.p.p.p.p.p.p.o.!.!.!.^.^.2.2.2.{.{.!.t.0.0.u.>   . k.;       ;   { }.",
"L '.t a.a.| @ # & 2 t } < . !.{.^.^.2.2.^.{.!.!.!.p.p.p.p.p.p.p.p.p.p.p.p.!.!.!.{.^.2.2.^.^.{.!.5.t.0.v.u ~ Q > 9./.. .       . ",
"} #.L 2 2 2 e # 1 & 2 t } < !.^.^.^.^.^.{.{.!.!.o.p.p.p.p.p.p.p.p.p.p.p.p.o.!.!.{.{.^.^.^.^.^.!.6 > p w.5.t.t.4.x.7.9.          ",
"; ^ L @.& # & & # 1 1 |.#.j !.^.^.^.^.{.{.!.!.!.o.p.p.p.p.p.p.p.p.p.p.p.p.o.!.!.!.{.{.^.^.^.^.!.} } < S 4._.y.z.b.b.3.-.; ; ; ; ",
"  . } ).e 1 A.% 1 & # # # B.!.^.^.^.^.{.{.!.!.!.p.p.p.p.p.p.p.p.p.p.p.p.p.p.!.!.!.{.{.^.^.^.^.!.e V { ; -.-.Q &.C.y._.5.o D.D.j.",
"; ;   ^ r 2 % % & & & # 2 3 !.{.^.^.{.{.!.!.!.E.p.p.p.p.p.p.p.p.p.p.p.p.p.p.E.!.!.!.{.{.^.^.{.!.# 2 5 }   ; 6 -.F.v.t.v u > k.G.",
"      . 8.r 2 & # & & 2 | j !.{.^.^.{.{.{.^.!.E.p.p.p.p.p.p.p.p.p.p.p.p.p.p.E.!.^.{.{.{.^.^.{.!.e & e 5 } . .   : o : u ! v Q . ",
". .       8.V e # 1 & = s 6 !.{.{.{.{.^.^.^.!.E.p.p.p.p.p.p.p.p.p.p.p.p.p.p.E.!.^.^.^.{.{.{.{.!.2 & & 2 t ^ <   k..   > h v.u.R ",
"E q   ; 6   ^ y e 1 1 @ s o.{.{.{.{.{.^.^.!.H.o.p.p.p.p.p.p.p.p.p.p.p.p.p.p.o.H.!.^.^.{.{.{.{.{.o.# & # @ 5 } ; I.k.  ; > w.5.t.",
"E q x   ; ; < ^ 2 & 1 e r o.{.{.{.{.^.^.^.!.H.o.p.p.p.p.p.p.p.p.p.p.p.p.p.p.o.H.!.^.^.^.{.{.{.{.o.& & & # 2 t { J.P c     <.t.K.",
"U q x x     < } @ e 1 & e o.{.{.{.{.^.^.^.!.E.p.p.p.p.p.p.p.p.p.p.p.p.p.p.p.p.E.!.^.^.^.{.{.{.{.o.N & & & & e = L.M.{ .   : g K ",
"o U E q ;   . < V @ # & # o.{.{.{.^.^.^.{.!.E.p.p.p.p.p.p.p.p.p.p.p.p.p.p.p.p.E.!.{.^.^.^.{.{.{.o.N h.# # 1 1 & N.O.}.[   o 7 P.",
", 7 o   c c   . } #.4 $.$.o.!.{.{.^.^.{.Q.H.o.p.p.p.p.p.p.p.p.p.p.p.p.p.p.p.p.o.H.Q.{.^.^.{.{.!.o.e & & 1 & & # # V z   ; 6 > Q ",
") 9 :   c c   < . j 4 $.o.Q.!.!.{.^.{.!.Q.H.o.p.p.p.p.p.p.p.p.p.p.p.p.p.p.p.p.o.H.Q.!.{.^.{.!.!.Q.o.@ @ @ 2 # & & e r ^ <   ; ; ",
"K _ m ;       .   ^ 3 $.o.!.!.!.!.{.{.Q.Q.Q.o.o.p.p.p.p.p.p.p.p.p.p.p.p.p.p.o.o.Q.Q.Q.{.{.!.!.!.!.o.| %.%.| 2 & & # 2 A }       ",
"g v B > ; .       } A >.o.Q.!.!.!.!.Q.Q.Q.Q.o.o.o.o.o.o.o.o.o.o.o.o.o.o.o.o.o.o.Q.Q.Q.Q.!.!.!.!.Q.o.z ,.,.%.@ 1 # & & L ^ ; ;   ",
"o B 0 u >     ;   . ^ ).o.Q.Q.!.!.!.H.H.Q.H.o.o.o.o.o.o.o.o.o.o.o.o.o.o.o.o.o.o.H.Q.H.H.!.!.!.Q.Q.o.z ,.,.%.@ 1 & 1 & 3 j .     ",
"  Q 0 v u o ;         o.H.Q.Q.!.!.Q.H.H.Q.E.o.o.o.H.H.H.H.H.H.H.H.H.H.H.H.o.o.o.E.Q.H.H.Q.!.!.Q.Q.H.o.%.%.| 2 1 & # 2 '.#.} . ; ",
"  ; : h v h > .       o.H.H.Q.!.Q.H.H.H.H.o.H.H.H.H.H.H.H.H.H.H.H.H.H.H.H.H.H.H.o.H.H.H.H.Q.!.Q.H.H.o.= = 2 # & # @ | k A k }   ",
"c < x p g _ ~ <   . < o.H.H.H.Q.Q.H.H.H.H.o.H.H.H.H.Q.Q.Q.Q.Q.Q.Q.Q.Q.Q.H.H.H.H.o.H.H.H.H.Q.Q.H.H.H.o.& & & & & 1 @ (.k 3 4 A < ",
"=.6   b _.:.<.[.      o.H.H.H.H.H.H.H.H.H.o.Q.Q.Q.Q.Q.Q.Q.Q.Q.Q.Q.Q.Q.Q.Q.Q.Q.Q.o.H.H.H.H.H.H.H.H.H.o.& & & & & 1 # e e # # 2 = ",
"}.} . 3.4.5.6.<.;     H.o.H.H.H.H.H.H.H.o.Q.Q.Q.Q.Q.# # & 1 & # 5 } . x.Q.Q.Q.Q.Q.o.H.H.H.H.H.H.H.o.H.1 & # & & & # e # & 1 1 & ",
"|.d } 7.H 6.5.5.6       H.o.H.H.H.H.H.o.Q.Q.& & 1 1 & & & & & & / d } 9...R.v.4.Q.Q.o.H.H.H.H.H.o.H.& 1 & & & & & & & & & 1 1 1 ",
"@.2 8.9./.R 0._.6 ;   .     o.o.o.o.o.Q.& 1 & # 2 e & & & # # # @.2 i 9./.6.:.:.6 ; Q.o.o.o.o.o.r V = 2 & 1 & # @ e & & & # # & ",
"# e a.9./.b.0.G o U   .         %.z %.| 2 & # 2 a.r 2 # & & 1 1 & 2 z 9./.b.0.G o U   .         %.z %.| 2 & # 2 %.| 2 # & & 1 1 ",
"# 2 | z ].Q 0 ! m : U   .       .     } A 3 L A a.r 2 & 1 & & & & 2 (.s ].> 0 g m : U   .       .     } A 3 L A a.r 2 & 1 & & & ",
"1 e 2 V 8.  > B 0 u : U           ; ;   } ^ j ^ = 2 e & & & # # & e 2 V i ; > B 0 u : U           ; ;   } ^ j ^ = @ e & & & # e ",
"c.# & # k ^ . : g 0 m l ;               ; ; . < @ 2 2 e # & 1 1 Y # 1 # j < . o g 0 m l ;               ; ; . < @ @ 2 e & & & & ",
"& & 1 1 Z L } 6 ; i.S. .o f.f.I   .   ;   . .   < < ^ y 2 & A.A.& 1 1 & @.3 ^ ; ; i.S. .o f.f.I   .   ;   . .   } } ^ y 2 & $ % ",
"1 # 2 @ @ '.#.^ . Q i.i.B 6.R <.> ; .   ;   . . . . . ^ | @ % A.& # e @ = L k ^ . Q i.i.B 6.R <.> ; .   ;   . . . . . ^ r @ % % ",
"1 2 | %.%.T.'.L }   > d. .n.t.5.o E U..   ; c [       . i | @ & & 2 | %.%.t '.L }   > d. .n.t.5.o E U..   ; c [ ; ; ;   i | @ # ",
"1 = z s.s.z V @.#.^   b n e._ ! m p o -.6   c c   . .   . i r 2 # = %.s.s.%.= ` #.^   b n e._ ! m p o -.6   c c     ; ;   i r @ ",
"Z = z s.s.z = & / d ^ ; > b ~ d.! _ n.v Q ; .   q x . .   . ^ y ` = %.s.s.%.= # / d ^ ; > b ~ d.! _ n.v Q ; .   q q .     . } + ",
"3 '.t %.%.| 2 & # @ t } < . ; > u.t.:.v.R.R <.<.U q x .   ; . < L '.t %.%.| 2 & # @ t } < . ; > u.t.:.v.R.R <.<.E q x   ; ; ;   ",
"^ k L @ @ 2 # & # # @ t } .   ; x.3.V.w.5.0.W.F.l E q q   ;     ^ k L = @ e # & # # @ t } .   ; x.3.V.w.5.0.W.F.U U E q     ; ; ",
"; ^ 3 Z 1 & & # & ~.1 O }     . ,.].].H t.X.Y.Z.U U E q     . . ; ^ 3 @.& 1 1 & & ~.1 O }     . ,.].].H t.X.Y.Z.l U E q . . .   "};
