/* XPM */
static char * tiles_xpm[] = {
"64 64 184 2",
"  	c #CAC29B",
". 	c #CBC39C",
"+ 	c #CDC8A0",
"@ 	c #D3CEA4",
"# 	c #D6D1A7",
"$ 	c #D6D3A8",
"% 	c #D5D2A7",
"& 	c #D7D2A8",
"* 	c #DAD2AB",
"= 	c #D2CDA3",
"- 	c #CEC79D",
"; 	c #C9C19A",
"> 	c #C6BE97",
", 	c #BBB291",
"' 	c #B3AA89",
") 	c #B5AD89",
"! 	c #BDB590",
"~ 	c #C3BB94",
"{ 	c #CDC69C",
"] 	c #C8C197",
"^ 	c #CEC69F",
"/ 	c #D6CFA5",
"( 	c #B7AF8B",
"_ 	c #BBB38E",
": 	c #C5BD98",
"< 	c #CCC49D",
"[ 	c #CBC49A",
"} 	c #CDC59E",
"| 	c #CFCAA0",
"1 	c #D8D3A9",
"2 	c #D4CFA5",
"3 	c #D5CDA6",
"4 	c #D6CEA7",
"5 	c #D2CBA1",
"6 	c #C8C099",
"7 	c #C0B894",
"8 	c #BBB38F",
"9 	c #BCB490",
"0 	c #BFB792",
"a 	c #BFB790",
"b 	c #C4BC95",
"c 	c #CAC399",
"d 	c #D3CCA2",
"e 	c #D5D0A6",
"f 	c #BEB692",
"g 	c #BCB48F",
"h 	c #C0B893",
"i 	c #CBC69E",
"j 	c #CFC7A0",
"k 	c #D1C9A2",
"l 	c #C7BF9A",
"m 	c #C3BB96",
"n 	c #BEB68F",
"o 	c #C6BE99",
"p 	c #C4BC97",
"q 	c #CAC29D",
"r 	c #D0CBA1",
"s 	c #CAC59B",
"t 	c #D1CAA0",
"u 	c #C1B994",
"v 	c #BEB691",
"w 	c #C5BD99",
"x 	c #CBC39E",
"y 	c #CFCAA2",
"z 	c #CBC69C",
"A 	c #D2CAA3",
"B 	c #C2BA95",
"C 	c #BFB793",
"D 	c #BDB591",
"E 	c #C9C19C",
"F 	c #D4D0A3",
"G 	c #B9B18C",
"H 	c #C4BF99",
"I 	c #C8C39D",
"J 	c #CFC89C",
"K 	c #B4AC88",
"L 	c #D4CCA5",
"M 	c #D4D1A4",
"N 	c #D6D3A6",
"O 	c #D4CDA3",
"P 	c #CCC59B",
"Q 	c #C5BD96",
"R 	c #C2BD97",
"S 	c #C6C19B",
"T 	c #B4AC87",
"U 	c #C8C09B",
"V 	c #D1CCA2",
"W 	c #D8D0A9",
"X 	c #D5D2A5",
"Y 	c #D8D4A7",
"Z 	c #D9D2A8",
"` 	c #D7D0A6",
" .	c #BDB58E",
"..	c #C5C09A",
"+.	c #C7C29C",
"@.	c #D8D1A7",
"#.	c #D0C8A1",
"$.	c #D7D2AA",
"%.	c #CCC79D",
"&.	c #C2BA93",
"*.	c #BEB594",
"=.	c #C9C298",
"-.	c #C7BF98",
";.	c #B9B18D",
">.	c #D5D0A8",
",.	c #C7C298",
"'.	c #D3CBA4",
").	c #D0CBA3",
"!.	c #D9D4AA",
"~.	c #C9C49C",
"{.	c #C8C39B",
"].	c #D7CFA8",
"^.	c #BAB28D",
"/.	c #CEC99F",
"(.	c #B7B28C",
"_.	c #B8B38D",
":.	c #C3BE98",
"<.	c #C9C39F",
"[.	c #CFC89E",
"}.	c #D5CEA4",
"|.	c #DAD3A9",
"1.	c #B9B48E",
"2.	c #C8C29E",
"3.	c #C4BF97",
"4.	c #BDB892",
"5.	c #BCB791",
"6.	c #C1BC96",
"7.	c #C5C098",
"8.	c #BEB993",
"9.	c #BBB690",
"0.	c #BFBA94",
"a.	c #C6C199",
"b.	c #C7C29A",
"c.	c #CCC79F",
"d.	c #CDC89E",
"e.	c #C2BD95",
"f.	c #DAD6A9",
"g.	c #C1B992",
"h.	c #BBB38C",
"i.	c #C9C49E",
"j.	c #CCC39A",
"k.	c #D9D5A8",
"l.	c #D7D3A6",
"m.	c #C0B891",
"n.	c #C9C099",
"o.	c #CBC29B",
"p.	c #D6D2A5",
"q.	c #BCB48D",
"r.	c #C5C096",
"s.	c #C9C097",
"t.	c #C6C197",
"u.	c #BAB58F",
"v.	c #D0C99F",
"w.	c #C0BB95",
"x.	c #B7B38E",
"y.	c #BBB792",
"z.	c #C1BC94",
"A.	c #C3BE96",
"B.	c #D7D4A9",
"C.	c #BDB793",
"D.	c #B6B08C",
"E.	c #BAB691",
"F.	c #CCC39C",
"G.	c #BEB894",
"H.	c #BCB692",
"I.	c #CDC49D",
"J.	c #CBC299",
"K.	c #D5D1A4",
"L.	c #D0C79E",
"M.	c #B3AE88",
"N.	c #D6CFA3",
"O.	c #D4CDA1",
"P.	c #B7B18D",
"Q.	c #D2CB9F",
"R.	c #D8D1A5",
"S.	c #D5CEA2",
"T.	c #D9D2A6",
"U.	c #BAB28E",
"V.	c #BAB28B",
"W.	c #CCC49F",
"X.	c #BAB490",
"Y.	c #B3AD89",
"Z.	c #B4AE8A",
"`.	c #B9B391",
"    . + @ # $ % & & # & & * * * & = -   . . ; > , ' ) ! ~   { ] ; . . ^ / & # & & & # & & * * * & = -   . . ; > , ( ) _ : < [ ] ",
"  ;   } | @ % $ & 1 & # 2 3 4 4 # 2 5 } . . ; 6 7 8 9 0 a b c [ ; .   < d 2 e 1 & 1 & # 2 3 4 4 # 2 5 } . . ; 6 f 9 _ g h >   . ",
"    ;   i | @ # & 1 1 2 | ^ j k e # 2 5 } .   ; l : : m ! n > < ; . ;   j 5 @ 1 & 1 1 2 | ^ j k e # 2 5 } .   ; o o p h ! 0 : q ",
"      ;   i r 2 # 1 & = s 6 ; < e & & 2 t ^ . ;       > 0 ! u o ; .   ; < ^ t / # 1 & = s 6 ; < e & & 2 t ^ . ; c .   > h v u w ",
"q x .   ;   ^ y e & 1 @ z 6 ; < 2 # 1 # 2 5 ^   [ [   ; o u ! v l q   ; . . } A e & 1 @ z 6 ; < 2 # 1 # 2 5 ^   c c c ; o B C D ",
"E q x . ; ; < ^ 2 & 1 e | ^ ^ k F # 1 & # 2 5 - - { c   . : g G H I q   .   . ^ 2 & 1 e | ^ ^ k F # 1 & # 2 5 - J { [   ; p 8 K ",
"l E q q ; ; . } @ e & & 2 L L 4 M N 1 & & # e = O 5 P   < Q g _ R S I q .     } @ e & & 2 L L 4 M N 1 & & # e = / 5 - . ; p _ T ",
"l U E E ; ; . } V @ # & & W W W X N Y & # & 1 1 Z ` j     b  .n R ..+.E . . . } V @ # & & W W W X N Y & # & 1 1 @.d - . ; > h g ",
", 7 o   c c   . } #.4 $.$.2 | %.e e & & 1 & & # & = z ; ;   > &.*.D m   [ c . . } #.4 $.$.2 | %.e e & & 1 & & # # V z   ; 6 > Q ",
") 9 :   c c   < . j 4 $.$.2 V | e 2 @ @ @ 2 # & 1 e r ^ < . ; Q 8 9 p < [ =.  . . j 4 $.$.2 V | e 2 @ @ @ 2 # & & e r ^ <   ; ; ",
"K _ m ;       .   ^ 3 $.$.# 2 @ # @ | %.%.| 2 & & # 2 k } . ; -.;._ p . . ;       ^ 3 $.$.# 2 @ # @ | %.%.| 2 & & # 2 A }       ",
"g v B > ; .       } A >.$.1 & & & = z ,.,.%.@ 1 # 1 # '.}   ; 6 v g u -.;   . ;   } A >.$.1 & & & = z ,.,.%.@ 1 # & & L ^ ; ;   ",
"o B 0 u >     ;   . ^ ).>.1 1 & & = z ,.,.%.@ 1 & !.1 3 j <   ; o 0 ! u Q   . ;   . ^ ).>.1 1 & & = z ,.,.%.@ 1 & 1 & 3 j .     ",
"  Q 0 v u o ;         i ).2 # & 1 2 | %.%.| 2 1 & & e '.k j < ; . b 0 v h o   ;       i ).2 # & 1 2 | %.%.| 2 1 & # 2 '.#.} . ; ",
"  ; : h v h > .       ~.i | 2 & & # 2 = = 2 # & # 2 r k A A ^   < 6 : u g 0 -.        ~.i | 2 & & # 2 = = 2 # & # @ | k A k }   ",
"c < x p g _ ~ <   . < {.{.%.@ 1 & & & & & & & & & @ | k 3 ].A < c . x p ^.^.b .   . < {.{.%.@ 1 & & & & & & & & 1 @ /.k 3 4 A < ",
"=.6   b (._.:.<.        [ [.}.|.& & & & & & & & 1 # e e # e @ r - 6 6 Q 1._.R 2.        [ [.}.|.& & & & & & & & 1 # e e # # 2 = ",
"[.} . 3.4.5.6.:.;       c { 5 / # & 1 1 & # & & & # # # & 1 & # 5 } . 7.8.9.0.H ;       c { 5 / # & 1 1 & # & & & # e # & 1 1 & ",
"}.d } a.H 6.5.5.6       ; [ - t 2 e & 1 & & & & 1 1 & & & & & & / d } b...0.9.4.6       ; [ - t 2 e & 1 & & & & & & & & & 1 1 1 ",
"@.2 c.b.{.R 1.(.6 ;   .     [ { r V = 2 & 1 & # 2 e & & & # # # @.2 i b.{.6._._.6 ;   .     [ { r V = 2 & 1 & # @ e & & & # # & ",
"# e d.b.{.e.1.G o U   .         %.z %.| 2 & # 2 d.r 2 # & & 1 1 & 2 z b.{.e.1.G o U   .         %.z %.| 2 & # 2 %.| 2 # & & 1 1 ",
"# 2 | z ~.Q 0 ! m : U   .       .     } A 3 L A d.r 2 & 1 & & & & 2 /.s ~.> 0 g m : U   .       .     } A 3 L A d.r 2 & 1 & & & ",
"1 e 2 V c.  > B 0 u : U           ; ;   } ^ j ^ = 2 e & & & # # & e 2 V i ; > B 0 u : U           ; ;   } ^ j ^ = @ e & & & # e ",
"f.# & # k ^ . : g 0 m l ;               ; ; . < @ 2 2 e # & 1 1 Y # 1 # j < . o g 0 m l ;               ; ; . < @ @ 2 e & & & & ",
"1 & & & @.'.} ; ; g.h.n : I i.I j.j.j.; 6   x I ^ } ^ 5 / Y k.Y & 1 1 & @.3 ^ ; ; g.h.n : I i.I j.j.j.; 6   x I } } ^ 5 / Y Y l.",
"& # e 2 2 '.#.}   b m.m.u 6.:...n.o..     . . . .     { t @ p.l.& # e @ = L k ^   b m.m.u 6.:...n.o..     . . . .   . { 5 @ p.l.",
"& 2 r d.d.t '.'.}   > g.q.^.1.5.-.;   . . .   6   ; ;   { 5 2 l.& 2 | %.%.t '.L }   > g.q.^.1.5.-.;   . . .   6       . - 5 2 l.",
"!.@ z r.r.z = Z k j . Q a h._ ! R R R -.; . o.s.        [ - d / # = %.t.t.%.= ` k j . Q a h._ ! R R R -.; . o.s.. .     [ - 5 }.",
"|.@ z t.r.z @ 1 }.5 } ; -.> b ~ u.1.1.8.>   . o.        ; . { v.` = %.t.t.%.= # }.5 } ; -.> b ~ u.1.1.8.>   . o.;       ;   { [.",
"L '.t d.d.| @ # & 2 t } < . 6 Q 5.u.1.9.u ~ Q > b.{.. .     . < L '.t %.%.| 2 & & 2 t } < . 6 Q 5.u.1.9.u ~ Q > b.{.. .       . ",
"} #.L 2 2 2 e # 1 & 2 t } < ; -.6 > p w.5.u.u.4.7.a.b.      . . ^ k L = @ e # & 1 & 2 t } < ; -.6 > p w.5.u.u.4.7.a.b.          ",
"; ^ L @.& # & & # 1 1 }.#.j j j } } < S 4.(.x.y.z.e.A.-.6 ;     ; ^ 3 @.& 1 1 & # 1 1 }.#.j j j } } < S 4.(.x.y.e.e.3.-.; ; ; ; ",
"  . } ).e 1 B.% 1 & # # # ].].4 e V { ; -.-.Q &.C.D._.u p   } 6   < } #.` 1 & !.1 & # # # ].].4 e V { ; -.-.Q &.E.x.(.5.o F.F.n.",
"; ;   ^ r 2 % % & & & # 2 3 4 ].# 2 5 }   ; 6 -.G._.1.0 0 b . . ;     < 5 @ e 1 & & & # 2 3 4 ].# 2 5 }   ; 6 -.H.9.u.v u > o.I.",
"      . c.r 2 & # & & 2 | j #.'.e & e 5 } . .   ..R m B ! 0 >   ; .     ^ t @ 1 # & & 2 | j #.'.e & e 5 } . .   : o : u ! v Q . ",
". .       c.V e # 1 & = s 6 ; < 2 & & 2 t ^ <   < .   > h ! u : 6 .   ; . ^ t ` # 1 & = s 6 ; < 2 & & 2 t ^ <   o..   > h 9.8.R ",
"E q   ; 6   ^ y e 1 1 @ s -.6 < 2 # & # @ 5 } ; =.    6 Q h ! 0 o q   ; ;   < k e 1 1 @ s -.6 < 2 # & # @ 5 } ; J.o.  ; > w.5.u.",
"E q x   ; ; < ^ 2 & 1 e r ^ j A K.& & & # 2 t { { { [   ; B 1.(.:.I x     ;   ^ 2 & 1 e r ^ j A K.& & & # 2 t { L.P c     :.u.M.",
"U q x x     < } @ e 1 & e 3 4 ].X N & & & & e = N.O.{ . . R 1.P.:.+.i.x .   . ^ @ e 1 & e 3 4 ].X N & & & & e = N.Q.{ .   : g K ",
"o U E q ;   . < V @ # & # W W W X N l.# # 1 1 & R.S.{ =.. H H.H.w...S E   ;   } V @ # & # W W W X N l.# # 1 1 & T.O.[.[   o 7 U.",
", 7 o   c c   . } #.4 $.$.2 | %.e e & & 1 & & # & = z ; ;   > &.*.D m   [ c . . } #.4 $.$.2 | %.e e & & 1 & & # # V z   ; 6 > Q ",
") 9 :   c c   < . j 4 $.$.2 V | e 2 @ @ @ 2 # & 1 e r ^ < . ; Q 8 9 p < [ =.  . . j 4 $.$.2 V | e 2 @ @ @ 2 # & & e r ^ <   ; ; ",
"K _ m ;       .   ^ 3 $.$.# 2 @ # @ | %.%.| 2 & & # 2 k } . ; -.;._ p . . ;       ^ 3 $.$.# 2 @ # @ | %.%.| 2 & & # 2 A }       ",
"g v B > ; .       } A >.$.1 & & & = z ,.,.%.@ 1 # 1 # '.}   ; 6 v g u -.;   . ;   } A >.$.1 & & & = z ,.,.%.@ 1 # & & L ^ ; ;   ",
"o B 0 u >     ;   . ^ ).>.1 1 & & = z ,.,.%.@ 1 & !.1 3 j <   ; o 0 ! u Q   . ;   . ^ ).>.1 1 & & = z ,.,.%.@ 1 & 1 & 3 j .     ",
"  Q 0 v u o ;         i ).2 # & 1 2 | %.%.| 2 1 & & e '.k j < ; . b 0 v h o   ;       i ).2 # & 1 2 | %.%.| 2 1 & # 2 '.#.} . ; ",
"  ; : h v h > .       ~.i | 2 & & # 2 = = 2 # & # 2 r k A A ^   < 6 : u g 0 -.        ~.i | 2 & & # 2 = = 2 # & # @ | k A k }   ",
"c < x p g _ ~ <   . < {.{.%.@ 1 & & & & & & & & & @ | k 3 ].A < c . x p ^.^.b .   . < {.{.%.@ 1 & & & & & & & & 1 @ /.k 3 4 A < ",
"=.6   b (._.:.<.        [ [.}.|.& & & & & & & & 1 # e e # e @ r - 6 6 Q 1._.R 2.        [ [.}.|.& & & & & & & & 1 # e e # # 2 = ",
"[.} . 3.4.5.6.:.;       c { 5 / # & 1 1 & # & & & # # # & 1 & # 5 } . 7.8.9.0.H ;       c { 5 / # & 1 1 & # & & & # e # & 1 1 & ",
"}.d } a.H 6.5.5.6       ; [ - t 2 e & 1 & & & & 1 1 & & & & & & / d } b...0.9.4.6       ; [ - t 2 e & 1 & & & & & & & & & 1 1 1 ",
"@.2 c.b.{.R 1.(.6 ;   .     [ { r V = 2 & 1 & # 2 e & & & # # # @.2 i b.{.6._._.6 ;   .     [ { r V = 2 & 1 & # @ e & & & # # & ",
"# e d.b.{.e.1.G o U   .         %.z %.| 2 & # 2 d.r 2 # & & 1 1 & 2 z b.{.e.1.G o U   .         %.z %.| 2 & # 2 %.| 2 # & & 1 1 ",
"# 2 | z ~.Q 0 ! m : U   .       .     } A 3 L A d.r 2 & 1 & & & & 2 /.s ~.> 0 g m : U   .       .     } A 3 L A d.r 2 & 1 & & & ",
"1 e 2 V c.  > B 0 u : U           ; ;   } ^ j ^ = 2 e & & & # # & e 2 V i ; > B 0 u : U           ; ;   } ^ j ^ = @ e & & & # e ",
"f.# & # k ^ . : g 0 m l ;               ; ; . < @ 2 2 e # & 1 1 Y # 1 # j < . o g 0 m l ;               ; ; . < @ @ 2 e & & & & ",
"& & 1 1 Z L } 6 ; m.V. .o i.i.I   .   ;   . .   < < ^ y 2 & B.B.& 1 1 & @.3 ^ ; ; m.V. .o i.i.I   .   ;   . .   } } ^ y 2 & $ % ",
"1 # 2 @ @ '.#.^ . Q m.m.B 6.R :.> ; .   ;   . . . . . ^ | @ % B.& # e @ = L k ^ . Q m.m.B 6.R :.> ; .   ;   . . . . . ^ r @ % % ",
"1 2 | %.%.v.'.L }   > g. .^.u.5.o E W..   ; c [       . i | @ & & 2 | %.%.t '.L }   > g. .^.u.5.o E W..   ; c [ ; ; ;   i | @ # ",
"1 = z t.t.z V @.#.^   b n h._ ! m p o -.6   c c   . .   . i r 2 # = %.t.t.%.= ` #.^   b n h._ ! m p o -.6   c c     ; ;   i r @ ",
"Z = z t.t.z = & / d ^ ; > b ~ g.! _ ^.v Q ; .   q x . .   . ^ y ` = %.t.t.%.= # / d ^ ; > b ~ g.! _ ^.v Q ; .   q q .     . } + ",
"3 '.t %.%.| 2 & # @ t } < . ; > 8.u._.9.0.R :.:.U q x .   ; . < L '.t %.%.| 2 & # @ t } < . ; > 8.u._.9.0.R :.:.E q x   ; ; ;   ",
"^ k L @ @ 2 # & # # @ t } .   ; 7.3.A.w.5.1.X.H.l E q q   ;     ^ k L = @ e # & # # @ t } .   ; 7.3.A.w.5.1.X.H.U U E q     ; ; ",
"; ^ 3 Z 1 & & # & !.1 O }     . ,.~.~.H u.Y.Z.`.U U E q     . . ; ^ 3 @.& 1 1 & & !.1 O }     . ,.~.~.H u.Y.Z.`.l U E q . . .   "};
