/* XPM */
static char * bottom_wall_xpm[] = {
"64 64 595 2",
"  	c #CAC29B",
". 	c #CBC39C",
"+ 	c #CDC8A0",
"@ 	c #D3CEA4",
"# 	c #D6D1A7",
"$ 	c #D6D3A8",
"% 	c #D5D2A7",
"& 	c #D7D2A8",
"* 	c #DAD2AB",
"= 	c #D2CDA3",
"- 	c #CEC79D",
"; 	c #C9C19A",
"> 	c #C6BE97",
", 	c #BBB291",
"' 	c #B3AA89",
") 	c #B5AD89",
"! 	c #BDB590",
"~ 	c #C3BB94",
"{ 	c #CDC69C",
"] 	c #C8C197",
"^ 	c #CEC69F",
"/ 	c #D6CFA5",
"( 	c #B7AF8B",
"_ 	c #BBB38E",
": 	c #C5BD98",
"< 	c #CCC49D",
"[ 	c #CBC49A",
"} 	c #CDC59E",
"| 	c #CFCAA0",
"1 	c #D8D3A9",
"2 	c #D4CFA5",
"3 	c #D5CDA6",
"4 	c #D6CEA7",
"5 	c #D2CBA1",
"6 	c #C8C099",
"7 	c #C0B894",
"8 	c #BBB38F",
"9 	c #BCB490",
"0 	c #BFB792",
"a 	c #BFB790",
"b 	c #C4BC95",
"c 	c #CAC399",
"d 	c #D3CCA2",
"e 	c #D5D0A6",
"f 	c #BEB692",
"g 	c #BCB48F",
"h 	c #C0B893",
"i 	c #CBC69E",
"j 	c #CFC7A0",
"k 	c #D1C9A2",
"l 	c #C7BF9A",
"m 	c #C3BB96",
"n 	c #BEB68F",
"o 	c #C6BE99",
"p 	c #C4BC97",
"q 	c #CAC29D",
"r 	c #D0CBA1",
"s 	c #CAC59B",
"t 	c #D1CAA0",
"u 	c #C1B994",
"v 	c #BEB691",
"w 	c #C5BD99",
"x 	c #CBC39E",
"y 	c #CFCAA2",
"z 	c #CBC69C",
"A 	c #D2CAA3",
"B 	c #C2BA95",
"C 	c #BFB793",
"D 	c #BDB591",
"E 	c #C9C19C",
"F 	c #D4D0A3",
"G 	c #B9B18C",
"H 	c #C4BF99",
"I 	c #C8C39D",
"J 	c #CFC89C",
"K 	c #B4AC88",
"L 	c #D4CCA5",
"M 	c #D4D1A4",
"N 	c #D6D3A6",
"O 	c #D4CDA3",
"P 	c #CCC59B",
"Q 	c #C5BD96",
"R 	c #C2BD97",
"S 	c #C6C19B",
"T 	c #B4AC87",
"U 	c #C8C09B",
"V 	c #D1CCA2",
"W 	c #D8D0A9",
"X 	c #D5D2A5",
"Y 	c #D8D4A7",
"Z 	c #D9D2A8",
"` 	c #D7D0A6",
" .	c #BDB58E",
"..	c #C5C09A",
"+.	c #C7C29C",
"@.	c #D8D1A7",
"#.	c #D0C8A1",
"$.	c #D7D2AA",
"%.	c #CCC79D",
"&.	c #C2BA93",
"*.	c #BEB594",
"=.	c #C9C298",
"-.	c #C7BF98",
";.	c #B9B18D",
">.	c #D5D0A8",
",.	c #C7C298",
"'.	c #D3CBA4",
").	c #D0CBA3",
"!.	c #D9D4AA",
"~.	c #C9C49C",
"{.	c #C8C39B",
"].	c #D7CFA8",
"^.	c #BAB28D",
"/.	c #CEC99F",
"(.	c #B7B28C",
"_.	c #B8B38D",
":.	c #C3BE98",
"<.	c #C9C39F",
"[.	c #CFC89E",
"}.	c #D5CEA4",
"|.	c #DAD3A9",
"1.	c #B9B48E",
"2.	c #C8C29E",
"3.	c #C4BF97",
"4.	c #BDB892",
"5.	c #BCB791",
"6.	c #C1BC96",
"7.	c #C5C098",
"8.	c #BEB993",
"9.	c #BBB690",
"0.	c #BFBA94",
"a.	c #C6C199",
"b.	c #C7C29A",
"c.	c #CCC79F",
"d.	c #CDC89E",
"e.	c #C2BD95",
"f.	c #DAD6A9",
"g.	c #D8D5AA",
"h.	c #D7D4A9",
"i.	c #C0B891",
"j.	c #BCB48D",
"k.	c #C8C399",
"l.	c #D9D1AA",
"m.	c #D0C7A0",
"n.	c #D3CAA3",
"o.	c #D4CBA4",
"p.	c #C1B992",
"q.	c #BAB58F",
"r.	c #C9C49E",
"s.	c #D8D3AB",
"t.	c #D1C8A1",
"u.	c #D5CCA5",
"v.	c #DBD3AC",
"w.	c #CAC59D",
"x.	c #CAC09C",
"y.	c #D9D4AC",
"z.	c #D3CEA6",
"A.	c #CAC79E",
"B.	c #C5C299",
"C.	c #CBC89F",
"D.	c #D2CFA6",
"E.	c #D7D4AB",
"F.	c #D2CDA5",
"G.	c #CAC19A",
"H.	c #CCC39C",
"I.	c #CDCA9F",
"J.	c #CFCCA1",
"K.	c #D3D0A5",
"L.	c #DAD5AB",
"M.	c #BCB78F",
"N.	c #C1BC94",
"O.	c #CEC59E",
"P.	c #CFC69F",
"Q.	c #CCC99E",
"R.	c #CAC198",
"S.	c #CBC299",
"T.	c #CDC49B",
"U.	c #CDC49D",
"V.	c #D2C9A0",
"W.	c #D4CBA2",
"X.	c #D7CEA5",
"Y.	c #DDD6AC",
"Z.	c #BDB68C",
"`.	c #BFB88E",
" +	c #C3BC92",
".+	c #CBC498",
"++	c #CCC599",
"@+	c #CEC59C",
"#+	c #D0C79E",
"$+	c #D8CFA6",
"%+	c #CCC398",
"&+	c #CDC499",
"*+	c #B1A47A",
"=+	c #B4A77D",
"-+	c #BAAD83",
";+	c #BDB187",
">+	c #BBAF85",
",+	c #BCB388",
"'+	c #BFB68B",
")+	c #ADA67C",
"!+	c #9F986E",
"~+	c #9E976D",
"{+	c #A39C72",
"]+	c #ABA478",
"^+	c #ACA579",
"/+	c #ADA479",
"(+	c #ACA37A",
"_+	c #ABA279",
":+	c #AEA177",
"<+	c #BBAE84",
"[+	c #ACA378",
"}+	c #ABA47A",
"|+	c #AAA379",
"1+	c #7E6B31",
"2+	c #846E34",
"3+	c #83692E",
"4+	c #886B31",
"5+	c #8B7138",
"6+	c #7A672F",
"7+	c #746933",
"8+	c #87824B",
"9+	c #B5B086",
"0+	c #CAC6A1",
"a+	c #D3C89B",
"b+	c #BEB07F",
"c+	c #907C47",
"d+	c #776128",
"e+	c #7B6327",
"f+	c #7D6328",
"g+	c #7F6B30",
"h+	c #7B682E",
"i+	c #75642C",
"j+	c #71622B",
"k+	c #6E612C",
"l+	c #6D622C",
"m+	c #6E632D",
"n+	c #6F642E",
"o+	c #7C692F",
"p+	c #836D33",
"q+	c #856B30",
"r+	c #8A6D33",
"s+	c #79662E",
"t+	c #736832",
"u+	c #88834C",
"v+	c #7C672E",
"w+	c #77642C",
"x+	c #70602C",
"y+	c #6D612D",
"z+	c #6D642D",
"A+	c #6E652E",
"B+	c #6D5A20",
"C+	c #745E24",
"D+	c #735920",
"E+	c #75581E",
"F+	c #775D24",
"G+	c #6C571E",
"H+	c #65561F",
"I+	c #9B9365",
"J+	c #A9A173",
"K+	c #ADA577",
"L+	c #ABA375",
"M+	c #AAA176",
"N+	c #A79B71",
"O+	c #A89C72",
"P+	c #AAA17A",
"Q+	c #A9A075",
"R+	c #ADA274",
"S+	c #9F9160",
"T+	c #7E6D37",
"U+	c #6F5A21",
"V+	c #735D23",
"W+	c #775E25",
"X+	c #715B21",
"Y+	c #6F591F",
"Z+	c #6C5720",
"`+	c #695520",
" @	c #66551F",
".@	c #645420",
"+@	c #60531C",
"@@	c #5F521B",
"#@	c #6A571D",
"$@	c #725C22",
"%@	c #745A21",
"&@	c #76591F",
"*@	c #665720",
"=@	c #735A21",
"-@	c #705A21",
";@	c #6A5621",
">@	c #665521",
",@	c #60531E",
"'@	c #5E531D",
")@	c #89743D",
"!@	c #917B42",
"~@	c #977D44",
"{@	c #9A7B44",
"]@	c #9C7F47",
"^@	c #967D45",
"/@	c #89763E",
"(@	c #7F7039",
"_@	c #746431",
":@	c #6E612D",
"<@	c #6C622F",
"[@	c #6D6632",
"}@	c #716734",
"|@	c #6C6030",
"1@	c #69582A",
"2@	c #675527",
"3@	c #68572B",
"4@	c #66582B",
"5@	c #6D612F",
"6@	c #776B37",
"7@	c #7D7039",
"8@	c #85743C",
"9@	c #8C753F",
"0@	c #8C733D",
"a@	c #947D47",
"b@	c #917C45",
"c@	c #8D7A42",
"d@	c #84733B",
"e@	c #87723B",
"f@	c #907A41",
"g@	c #9B7C45",
"h@	c #80713A",
"i@	c #997C44",
"j@	c #977C45",
"k@	c #987D46",
"l@	c #967D47",
"m@	c #927D48",
"n@	c #8D7944",
"o@	c #877640",
"p@	c #85743E",
"q@	c #9B844E",
"r@	c #A28953",
"s@	c #AB8D57",
"t@	c #AE8F58",
"u@	c #AF9059",
"v@	c #AC915A",
"w@	c #A08A51",
"x@	c #756029",
"y@	c #65541C",
"z@	c #5D5019",
"A@	c #5F541C",
"B@	c #5D521C",
"C@	c #5F4E1A",
"D@	c #624B19",
"E@	c #634718",
"F@	c #614617",
"G@	c #5E4817",
"H@	c #5F4F1B",
"I@	c #867B43",
"J@	c #998A53",
"K@	c #A08B56",
"L@	c #A28855",
"M@	c #AB8E56",
"N@	c #AC8F57",
"O@	c #AE905A",
"P@	c #AA8F58",
"Q@	c #A68D55",
"R@	c #A08953",
"S@	c #9D8851",
"T@	c #A38A54",
"U@	c #AC8E58",
"V@	c #AB9059",
"W@	c #9F8950",
"X@	c #AD8E57",
"Y@	c #AE8F59",
"Z@	c #AF905A",
"`@	c #AB905B",
" #	c #A68D57",
".#	c #A18A54",
"+#	c #A88F59",
"@#	c #A88D58",
"##	c #AD8E58",
"$#	c #A38A52",
"%#	c #99834A",
"&#	c #8D783F",
"*#	c #86753D",
"=#	c #82763C",
"-#	c #807138",
";#	c #88733C",
">#	c #927742",
",#	c #957544",
"'#	c #937541",
")#	c #907643",
"!#	c #88743F",
"~#	c #867740",
"{#	c #8F8049",
"]#	c #988751",
"^#	c #A28B57",
"/#	c #AA905D",
"(#	c #AD8F59",
"_#	c #B0915B",
":#	c #A98E57",
"<#	c #A78E56",
"[#	c #A9905A",
"}#	c #A98E59",
"|#	c #A28951",
"1#	c #A88F57",
"2#	c #A78E58",
"3#	c #AC915C",
"4#	c #AC8D57",
"5#	c #AA8C56",
"6#	c #AC9561",
"7#	c #A8935C",
"8#	c #A6935B",
"9#	c #9F8E56",
"0#	c #9B8850",
"a#	c #AD8F5B",
"b#	c #AE8E5B",
"c#	c #9B8651",
"d#	c #9D8853",
"e#	c #A68C59",
"f#	c #A58C56",
"g#	c #A78C55",
"h#	c #AC8D56",
"i#	c #A88D56",
"j#	c #A78C57",
"k#	c #AA8F5A",
"l#	c #AF915B",
"m#	c #AD925B",
"n#	c #AE9A68",
"o#	c #AF9B69",
"p#	c #AF9B68",
"q#	c #AA9462",
"r#	c #A58E5A",
"s#	c #AC8E5A",
"t#	c #A68B56",
"u#	c #A78953",
"v#	c #9D8954",
"w#	c #A08B54",
"x#	c #AE935C",
"y#	c #9E8954",
"z#	c #A18A56",
"A#	c #AD9058",
"B#	c #B29762",
"C#	c #AF9D6F",
"D#	c #B19F6F",
"E#	c #B39D6E",
"F#	c #B09868",
"G#	c #AD9362",
"H#	c #AD915F",
"I#	c #AD925D",
"J#	c #AF915D",
"K#	c #AE905C",
"L#	c #AD8D5A",
"M#	c #AB8B58",
"N#	c #988952",
"O#	c #9E8A55",
"P#	c #A48D57",
"Q#	c #998854",
"R#	c #AC8C59",
"S#	c #AF9967",
"T#	c #AF9F6C",
"U#	c #AFA26E",
"V#	c #AF9E6A",
"W#	c #AE9763",
"X#	c #AD9360",
"Y#	c #AD9765",
"Z#	c #AD9967",
"`#	c #AE9260",
" $	c #AE9E6B",
".$	c #AD9C68",
"+$	c #AE9964",
"@$	c #AD945E",
"#$	c #AE8D58",
"$$	c #AC935D",
"%$	c #AB9661",
"&$	c #AA935F",
"*$	c #AB8C56",
"=$	c #AE935E",
"-$	c #AF9361",
";$	c #A99058",
">$	c #A98B55",
",$	c #AD8C57",
"'$	c #A88E55",
")$	c #A88A54",
"!$	c #A38851",
"~$	c #AA8B55",
"{$	c #A18852",
"]$	c #AD8C59",
"^$	c #AF8E59",
"/$	c #A98F56",
"($	c #A68B54",
"_$	c #9D8650",
":$	c #9A8550",
"<$	c #A58E58",
"[$	c #A78B59",
"}$	c #A48D59",
"|$	c #9F8A55",
"1$	c #9A8651",
"2$	c #A88A58",
"3$	c #AF8F5C",
"4$	c #AB8D59",
"5$	c #A98B57",
"6$	c #B08F5A",
"7$	c #A08955",
"8$	c #9B8752",
"9$	c #948450",
"0$	c #968652",
"a$	c #9F8B56",
"b$	c #9F8856",
"c$	c #9D8755",
"d$	c #938651",
"e$	c #958551",
"f$	c #988753",
"g$	c #9B8755",
"h$	c #9C8855",
"i$	c #9A8955",
"j$	c #9C8853",
"k$	c #9B8754",
"l$	c #9A8953",
"m$	c #AA8C5A",
"n$	c #A38956",
"o$	c #9C8752",
"p$	c #928652",
"q$	c #918551",
"r$	c #9F8854",
"s$	c #A48954",
"t$	c #9A8653",
"u$	c #958450",
"v$	c #90834E",
"w$	c #8F844E",
"x$	c #908750",
"y$	c #928751",
"z$	c #928550",
"A$	c #93834F",
"B$	c #918450",
"C$	c #90854F",
"D$	c #AB8D5B",
"E$	c #A48A57",
"F$	c #908450",
"G$	c #918650",
"H$	c #92854E",
"I$	c #958854",
"J$	c #958552",
"K$	c #AA8B54",
"L$	c #9B8A56",
"M$	c #978753",
"N$	c #978652",
"O$	c #91844F",
"P$	c #998955",
"Q$	c #978754",
"R$	c #968551",
"S$	c #AB8A54",
"T$	c #968B55",
"U$	c #948753",
"V$	c #948451",
"W$	c #A48B55",
"X$	c #968653",
"Y$	c #A68A58",
"Z$	c #A38E59",
"`$	c #95814C",
" %	c #93824C",
".%	c #928551",
"+%	c #938652",
"@%	c #9C8B57",
"#%	c #A28752",
"$%	c #A68F59",
"%%	c #A18C55",
"&%	c #9C8750",
"*%	c #9F8852",
"=%	c #A28D58",
"-%	c #998852",
";%	c #9C8551",
">%	c #A88E5B",
",%	c #AA9159",
"'%	c #938350",
")%	c #A38D54",
"!%	c #9E8856",
"~%	c #AB925C",
"{%	c #AB945E",
"]%	c #9D8956",
"^%	c #A58C54",
"/%	c #A38C56",
"(%	c #AB9158",
"_%	c #AC925F",
":%	c #AD9662",
"<%	c #AB925A",
"[%	c #AE8D57",
"}%	c #AC8E5C",
"|%	c #AC9261",
"1%	c #AE9765",
"2%	c #AC935B",
"3%	c #B0925C",
"4%	c #AA9057",
"5%	c #A99057",
"6%	c #AE9866",
"7%	c #B19D6B",
"8%	c #AF9864",
"9%	c #B19B69",
"0%	c #A18850",
"a%	c #A28750",
"b%	c #AF8E5B",
"c%	c #AE8D5A",
"d%	c #9A8B54",
"    . + @ # $ % & & # & & * * * & = -   . . ; > , ' ) ! ~   { ] ; . . ^ / & # & & & # & & * * * & = -   . . ; > , ( ) _ : < [ ] ",
"  ;   } | @ % $ & 1 & # 2 3 4 4 # 2 5 } . . ; 6 7 8 9 0 a b c [ ; .   < d 2 e 1 & 1 & # 2 3 4 4 # 2 5 } . . ; 6 f 9 _ g h >   . ",
"    ;   i | @ # & 1 1 2 | ^ j k e # 2 5 } .   ; l : : m ! n > < ; . ;   j 5 @ 1 & 1 1 2 | ^ j k e # 2 5 } .   ; o o p h ! 0 : q ",
"      ;   i r 2 # 1 & = s 6 ; < e & & 2 t ^ . ;       > 0 ! u o ; .   ; < ^ t / # 1 & = s 6 ; < e & & 2 t ^ . ; c .   > h v u w ",
"q x .   ;   ^ y e & 1 @ z 6 ; < 2 # 1 # 2 5 ^   [ [   ; o u ! v l q   ; . . } A e & 1 @ z 6 ; < 2 # 1 # 2 5 ^   c c c ; o B C D ",
"E q x . ; ; < ^ 2 & 1 e | ^ ^ k F # 1 & # 2 5 - - { c   . : g G H I q   .   . ^ 2 & 1 e | ^ ^ k F # 1 & # 2 5 - J { [   ; p 8 K ",
"l E q q ; ; . } @ e & & 2 L L 4 M N 1 & & # e = O 5 P   < Q g _ R S I q .     } @ e & & 2 L L 4 M N 1 & & # e = / 5 - . ; p _ T ",
"l U E E ; ; . } V @ # & & W W W X N Y & # & 1 1 Z ` j     b  .n R ..+.E . . . } V @ # & & W W W X N Y & # & 1 1 @.d - . ; > h g ",
", 7 o   c c   . } #.4 $.$.2 | %.e e & & 1 & & # & = z ; ;   > &.*.D m   [ c . . } #.4 $.$.2 | %.e e & & 1 & & # # V z   ; 6 > Q ",
") 9 :   c c   < . j 4 $.$.2 V | e 2 @ @ @ 2 # & 1 e r ^ < . ; Q 8 9 p < [ =.  . . j 4 $.$.2 V | e 2 @ @ @ 2 # & & e r ^ <   ; ; ",
"K _ m ;       .   ^ 3 $.$.# 2 @ # @ | %.%.| 2 & & # 2 k } . ; -.;._ p . . ;       ^ 3 $.$.# 2 @ # @ | %.%.| 2 & & # 2 A }       ",
"g v B > ; .       } A >.$.1 & & & = z ,.,.%.@ 1 # 1 # '.}   ; 6 v g u -.;   . ;   } A >.$.1 & & & = z ,.,.%.@ 1 # & & L ^ ; ;   ",
"o B 0 u >     ;   . ^ ).>.1 1 & & = z ,.,.%.@ 1 & !.1 3 j <   ; o 0 ! u Q   . ;   . ^ ).>.1 1 & & = z ,.,.%.@ 1 & 1 & 3 j .     ",
"  Q 0 v u o ;         i ).2 # & 1 2 | %.%.| 2 1 & & e '.k j < ; . b 0 v h o   ;       i ).2 # & 1 2 | %.%.| 2 1 & # 2 '.#.} . ; ",
"  ; : h v h > .       ~.i | 2 & & # 2 = = 2 # & # 2 r k A A ^   < 6 : u g 0 -.        ~.i | 2 & & # 2 = = 2 # & # @ | k A k }   ",
"c < x p g _ ~ <   . < {.{.%.@ 1 & & & & & & & & & @ | k 3 ].A < c . x p ^.^.b .   . < {.{.%.@ 1 & & & & & & & & 1 @ /.k 3 4 A < ",
"=.6   b (._.:.<.        [ [.}.|.& & & & & & & & 1 # e e # e @ r - 6 6 Q 1._.R 2.        [ [.}.|.& & & & & & & & 1 # e e # # 2 = ",
"[.} . 3.4.5.6.:.;       c { 5 / # & 1 1 & # & & & # # # & 1 & # 5 } . 7.8.9.0.H ;       c { 5 / # & 1 1 & # & & & # e # & 1 1 & ",
"}.d } a.H 6.5.5.6       ; [ - t 2 e & 1 & & & & 1 1 & & & & & & / d } b...0.9.4.6       ; [ - t 2 e & 1 & & & & & & & & & 1 1 1 ",
"@.2 c.b.{.R 1.(.6 ;   .     [ { r V = 2 & 1 & # 2 e & & & # # # @.2 i b.{.6._._.6 ;   .     [ { r V = 2 & 1 & # @ e & & & # # & ",
"# e d.b.{.e.1.G o U   .         %.z %.| 2 & # 2 d.r 2 # & & 1 1 & 2 z b.{.e.1.G o U   .         %.z %.| 2 & # 2 %.| 2 # & & 1 1 ",
"# 2 | z ~.Q 0 ! m : U   .       .     } A 3 L A d.r 2 & 1 & & & & 2 /.s ~.> 0 g m : U   .       .     } A 3 L A d.r 2 & 1 & & & ",
"1 e 2 V c.  > B 0 u : U           ; ;   } ^ j ^ = 2 e & & & # # & e 2 V i ; > B 0 u : U           ; ;   } ^ j ^ = @ e & & & # e ",
"f.# & # k ^ . : g 0 m l ;               ; ; . < @ 2 2 e # & 1 1 Y # 1 # j < . o g 0 m l ;               ; ; . < @ @ 2 e & & & & ",
"$ g.h.# 2 V %.,.6 i.j.a o I I +.  .   ] ] c [ =.^ ^ j A 2 & 1 & h.h.h.1 # V %.k.6 i.j.a o I I +.  .   ] ] c [ =.^ } ^ k / & 1 & ",
"e e / O d 5 [.[ ; b a a u 6.:...-.  .     [ P P       } k @ # 1 e 2 / / }.5 [.P ; b a a u 6.:...-.  .     [ P P       } k @ # & ",
"l.4 A j m.n.o.o.}   > p. ._ q.4...I r.~.b.a.7.7.q q   . } A >.s.l.4 A #.t.n.o.u.}   > p. ._ q.4...I r.~.b.a.7.7.q q   < j '.>.$.",
"v.L < -.6 } L ].k ^   Q i.j._ _ 6.6.R ..I w.w.~.q q   ; ; < k L * L < -.6 } L W k ^   Q i.j._ _ 6.6.R ..I w.w.~.x.E     . } k '.",
"y.z.A.B.B.C.D.E.}.5 < 6 > Q ~ p.5.1._.4.H {.{.a.  . < .   . ^ k $.F.A.B.B.A.D.E.}.5 < 6 > Q ~ p.5.1._.4.H {.{.a.G.H.H.. . . } j ",
"2 = | I.I.J.K.h.L.# 5 < .   ; -.8.q.1.M.N.3.7.7.=.[ P < H.H.O.P.= = r I.Q.J.K.h.L.# 5 < .   ; -.8.q.1.M.N.3.7.7.R.S.T.U.< < < } ",
"V.W.X.@.@.@.|.Y.1 1 e t } .   ; Q Q Q ~ a Z.`. +.+++{ { @+T.@+O.#+W.$+Z ` ` |.Y.1 1 e t } .   ; Q Q Q ~ a Z.`. +%+&+T.@+{ { { } ",
"*+=+-+;+;+>+,+'+d.@ & }.j < . < } ^ . `.)+!+~+{+]+]+^+/+(+_+_+_+:+=+<+;+>+>+,+'+d.@ & }.j < . < } ^ . `.)+!+~+{+/+/+[+[+(+}+}+|+",
"1+2+3+4+5+6+7+8+9+| ` { } j } y 0+w.a+b+c+d+e+f+g+h+i+j+k+l+m+n+o+p+q+r+5+s+t+u+9+| ` { } j } y 0+w.a+b+c+d+e+f+g+v+w+x+k+y+z+A+",
"B+C+D+E+F+G+H+z+I+J+K+L+/+M+N+O+P+Q+R+S+T+U+V+W+X+Y+Z+`+ @.@+@@@#@$@%@&@F+G+*@A+I+J+K+L+/+M+N+O+P+Q+R+S+T+U+V+W+=@-@Z+;@>@.@,@'@",
")@!@~@{@]@^@/@(@_@:@<@[@}@|@1@2@3@4@5@6@7@8@9@0@~@~@^@a@b@c@/@d@e@f@~@g@]@^@/@h@_@:@<@[@}@|@1@2@3@4@5@6@7@8@9@0@i@j@k@l@m@n@o@p@",
"q@r@s@t@u@v@w@b@x@y@z@A@B@C@D@E@F@G@H@m+I@J@K@L@M@N@O@O@P@Q@R@S@q@T@U@u@u@V@W@b@x@y@z@A@B@C@D@E@F@G@H@m+I@J@K@L@X@Y@Z@O@`@ #.#S@",
"+#@#U@Y@##O@P@$#%#&#*#=#-#;#>#,#'#)#!#~#{#]#^#/#(#O@_#_#Z@(#:#<#[#}#(#Y@##(#P@|#%#&#*#=#-#;#>#,#'#)#!#~#{#]#^#/#Y@Y@Z@_#Z@(#1#2#",
"3#:#U@Y@4#5#P@V@6#7#8#9#0#.#a#b#Z@P@.#c#d#K@e#`@f#g#5#h#h#4#U@P@`@i#s@Y@4#s@V@V@6#7#8#9#0#.#a#b#Z@P@.#c#d#K@e#`@f#j#5#4#4#s@:#k#",
"U@s@(#l#O@s@P@m#n#o#p#q#r#@#a#s#O@U@j#t#}#`@:#u#v#w#Q@s@h#4#U@U@s@5#U@O@O@U@V@x#n#o#p#q#r#@#a#s#O@U@j#t#}#`@:#u#y#z# #5#4#s@U@k#",
"N@A#s@s@s#}#3#B#C#D#E#F#G#H#I#J#V@(#K#L#M#L#(#M@N#O#P#P@U@##U@s#N@A#s@s@s#k#3#B#C#D#E#F#G#H#I#J#V@(#K#L#M#L#(#M@Q#O#P#P@(#U@s#k#",
"L#U@U@s@R#H#S#T#U#V#W#3#a#X#Y#Z#v@V@U@s@U@(#U@s@s@s@4#4#####U@U@b#U@s@s@L#`#S# $U#V#W#3#a#X#Y#Z#v@V@U@s@U@(#U@s@5#5#5#4#L#L#L#L#",
"##(#(#U@##K#W#.$.$+$@$U@s@I#W#S#(#U@s@s@(#(#U@s@s@U@U@U@U@U@P@P@##(#U@U@##J#W#.$.$+$@$U@s@I#W#S#(#U@s@s@(#(#U@s@:#s@s@U@U@U@U@U@",
"#$(#(#(#Y@(#$$%$&$$$V@5#*$(#=$-$Y@##############U@U@U@(#P@P@P@:##$(#(#(###(#$$%$&$$$V@5#*$(#=$-$Y@##############U@U@U@P@P@P@:#s@",
"#$U@P@U@####P@;$i#i#>$>$5#U@U@*$##Y@Y@s@>$>$s@Y@####Y@U@U@s@s@U@,$U@V@(###4#P@;$i#i#>$>$5#U@U@*$##Y@Y@s@>$>$s@Y@##Y@(#U@U@s@s@4#",
"#$U@:#:#U@##s@'$4#)$!$|#Q@P@##~$R#a#`@ #r@{$t#`@]$L#L#s#s@s@##^$#$U@P@P@U@##s@/$4#)$!$|#Q@P@##~$R#a#`@ #r@{$t#`@L#L#s#s#s@4##$^$",
"b#}#P# #s#Y@t@M@Y@($_$:$y#<$(###[$e#}$|$1$:$|$}$2$[$e#e#f#j#L#3$b#}#P#2#4$Y@X@N@Y@($_$:$y#<$(###[$e#}$|$1$:$|$}$[$[$e# # #5$##6$",
"L#f#|$7$j###t@X@U@f#8$9$0$a$2#s@b$c$Q#0$d$e$f$Q#g$h$i$i$j$|$e#}#L#f#|$7$j#Y@t@X@U@f#8$9$0$a$2#s@b$c$Q#0$d$e$f$Q#k$i$i$l$j$R@j#s#",
"m$n$c#o$n$4$##X@5$^#i$p$q$f$r$s$t$u$v$w$x$y$z$A$B$q$q$C$z$]#|$}$D$L@:$c#E$s#Y@h#5$^#i$p$q$f$r$s$t$u$v$w$x$y$z$A$F$q$x$G$H$]#K@ #",
"I$J$u$o$ #P@s@K$L$f$9$e$M$0$N$f$z$d$d$y$q$q$q$q$O$z$z$O$z$d$M$P$Q$J$R$j$P#V@##S$L$f$9$e$M$0$N$f$z$d$d$y$q$q$q$q$9$z$G$G$9$R$M$T$",
"U$V$u$t$K@P#W$r@M$9$O$z$d$d$e$e$1$8$k$k$k$k$k$k$i$f$R$R$0$M$e$A$X$V$9$f$a$P#f#s$M$9$O$z$d$d$e$e$1$8$k$k$k$k$k$k$h$M$d$e$f$t$R$z$",
"X$V$A$e$f$i$k$t$e$z$O$G$y$z$d$0$E$Y$j#j#j#t#j#j#Z$|$c#o$O#a$1$`$X$V$9$e$M$i$k$t$e$z$O$G$y$z$d$0$E$Y$j#j#j#t#j#j#e#|$1$8$|$|$1$ %",
"i$f$e$9$.%.%+%J$f$Q#P$M$e$e$Q#@%4$s#Y@Y@####Y@Y@k#t##%T@<$$%%%&%Q#f$e$O$B$.%V$V$f$Q#P$M$e$e$Q#@%4$s#Y@Y@####Y@Y@s#t#*%.#2#+#.#0#",
"=%K@-%e$A$B$J$X$n$}$}$K@c#;%z#>%:#U@U@######U@A#Y@5#)$g#P@,%1#Q@=%|$8$e$A$'%V$X$n$}$}$K@c#;%z#>%:#U@U@######U@A#^$5#($($s@(#1#)%",
"k#2#w#j$1$k$h$!%5$s#`@j##%#%5$a#;$P@U@s@s@P@~%{%Y@U@s@s@U@P@P@P@+# #.#d#1$t$h$]%5$s#`@j##%#%5$a#;$P@U@s@s@P@~%{%^$U@:#:#s@##P@1#",
"Y@s@i#^%/%f#j#5$4#(#(#i#($>$s@##(%P@U@s#a#_%:%+$(#(#(#(#(#(#U@U@(#s@g#^%f#f#t#j#4#(#(#i#($>$s@##(%P@U@s#a#_%:%+$Z@O@<%V@(#Y@U@;$",
"[%X@N@P@V@(####$U@(#V@:#P@V@(#s@N@s@4#R#}%|%1%o#V@v@m#m#l#O@(#U@X@X@N@U@(#Y@###$U@(#V@:#P@V@(#s@N@s@4#R#}%|%1%o#O@v@2%x#3%_#O@V@",
"####U@P@V@V@(#U@Y@Y@U@N@4%5%5%5%(#U@U@s@U@(#O@l#4$_%6%7%7%6%_%4$####U@P@V@V@(#U@Y@Y@U@N@4%5%5%5%(#U@U@s@U@(#O@l#4$_%6%7%7%6%_%4$",
"##U@U@i#($($i#(#U@s@s@s@U@######(#U@U@U@U@U@(#(#(#=$8%9%9%8%=$(###U@U@i#($($i#(#U@s@s@s@U@######(#U@U@U@U@U@(#(#(#=$8%9%9%8%=$(#",
"U@(#P@($0%a%($V@V@P@s@s@L#b%b%c%U@U@U@U@U@U@U@U@U@V@@$6#6#@$V@U@U@(#P@($0%a%($V@V@P@s@s@L#b%b%c%U@U@U@U@U@U@U@U@U@V@@$6#6#@$V@U@",
"U@(#P@^%0%0%($V@(#(#U@4$5$Y$[$[$s@s@U@U@U@U@s@s@h#s@P@k#k#P@s@h#U@(#P@^%0%0%($V@(#(#U@4$5$Y$[$[$s@s@U@U@U@U@s@s@h#s@P@k#k#P@s@h#",
"(#(#P@i#^%($i#P@4###U@j#r$o$8$L$5#s@s@U@U@U@U@U@t@N@U@s@s@U@N@t@(#(#P@i#^%($i#P@4###U@j#r$o$8$L$5#s@s@U@U@U@U@U@t@N@U@s@s@U@N@t@",
"##U@U@P@P@P@U@U@,$Y@a# #*%1$-%d%5#5#s@U@U@U@U@U@(#(###4#4###(#(###U@U@P@P@P@U@U@,$Y@a# #*%1$-%d%5#5#s@U@U@U@U@U@(#(###4#4###(#(#",
"#$##U@(#(#(#U@##b#a#a#}#j#f#/%P#s@s@s@U@U@U@U@U@U@U@########U@U@#$##U@(#(#(#U@##b#a#a#}#j#f#/%P#s@s@s@U@U@U@U@U@U@U@########U@U@",
",$#$##(#U@U@####`@s#4$s@##Y@#$#$U@U@U@U@U@U@U@U@P@U@##Y@Y@##U@P@,$#$##(#U@U@####`@s#4$s@##Y@#$#$U@U@U@U@U@U@U@U@P@U@##Y@Y@##U@P@"};
